<svg xmlns="http://www.w3.org/2000/svg" width="134" height="100" viewBox="0 0 134 100">
	<style>

		#cursor {
			-webkit-animation: blink 1s step-end infinite;
			animation: "blink" 1s step-end infinite;
		}

		@-webkit-keyframes "blink" {
			0% { opacity: 1.0; }
			50% { opacity: 0.0; }
			100% { opacity: 1.0; }
		}

		@keyframes "blink" {
			0% { opacity: 1.0; }
			50% { opacity: 0.0; }
			100% { opacity: 1.0; }
		}
	</style>
  <g fill="none">
    <path fill="#D5D5D5" d="M 5.832 12.474 C 5.652 12.066 5.496 11.694 5.364 11.358 C 5.232 11.022 5.103 10.686 4.977 10.35 C 4.851 10.014 4.725 9.663 4.599 9.297 C 4.473 8.931 4.326 8.514 4.158 8.046 C 3.99 8.514 3.84 8.931 3.708 9.297 C 3.576 9.663 3.447 10.014 3.321 10.35 C 3.195 10.686 3.063 11.022 2.925 11.358 C 2.787 11.694 2.628 12.066 2.448 12.474 L 1.332 12.474 C 0.996 10.998 0.717 9.537 0.495 8.091 C 0.273 6.645 0.108 5.322 -0 4.122 L 1.404 4.122 C 1.44 4.59 1.479 5.049 1.521 5.499 C 1.563 5.949 1.614 6.42 1.674 6.912 C 1.734 7.404 1.803 7.938 1.881 8.514 C 1.959 9.09 2.046 9.738 2.142 10.458 C 2.334 9.978 2.496 9.558 2.628 9.198 C 2.76 8.838 2.88 8.496 2.988 8.172 C 3.096 7.848 3.201 7.518 3.303 7.182 C 3.405 6.846 3.516 6.468 3.636 6.048 L 4.752 6.048 L 5.076 7.182 C 5.172 7.518 5.274 7.848 5.382 8.172 L 5.724 9.198 C 5.844 9.558 5.994 9.972 6.174 10.44 C 6.282 9.78 6.378 9.168 6.462 8.604 C 6.546 8.04 6.618 7.509 6.678 7.011 C 6.738 6.513 6.792 6.03 6.84 5.562 C 6.888 5.094 6.93 4.614 6.966 4.122 L 8.316 4.122 C 8.256 4.722 8.184 5.364 8.1 6.048 C 8.016 6.732 7.914 7.434 7.794 8.154 C 7.674 8.874 7.542 9.603 7.398 10.341 C 7.254 11.079 7.104 11.79 6.948 12.474 L 5.832 12.474 Z M 16.938 8.298 C 16.938 8.958 16.845 9.555 16.659 10.089 C 16.473 10.623 16.212 11.082 15.876 11.466 C 15.54 11.85 15.138 12.147 14.67 12.357 C 14.202 12.567 13.692 12.672 13.14 12.672 C 12.6 12.672 12.099 12.567 11.637 12.357 C 11.175 12.147 10.776 11.85 10.44 11.466 C 10.104 11.082 9.843 10.623 9.657 10.089 C 9.471 9.555 9.378 8.958 9.378 8.298 C 9.378 7.638 9.471 7.038 9.657 6.498 C 9.843 5.958 10.104 5.499 10.44 5.121 C 10.776 4.743 11.175 4.449 11.637 4.239 C 12.099 4.029 12.6 3.924 13.14 3.924 C 13.692 3.924 14.202 4.029 14.67 4.239 C 15.138 4.449 15.54 4.743 15.876 5.121 C 16.212 5.499 16.473 5.958 16.659 6.498 C 16.845 7.038 16.938 7.638 16.938 8.298 Z M 15.408 8.298 C 15.408 7.35 15.204 6.603 14.796 6.057 C 14.388 5.511 13.836 5.238 13.14 5.238 C 12.456 5.238 11.913 5.511 11.511 6.057 C 11.109 6.603 10.908 7.35 10.908 8.298 C 10.908 9.234 11.109 9.975 11.511 10.521 C 11.913 11.067 12.456 11.34 13.14 11.34 C 13.836 11.34 14.388 11.067 14.796 10.521 C 15.204 9.975 15.408 9.234 15.408 8.298 Z M 19.584 12.474 L 19.584 4.572 C 20.808 4.152 22.044 3.942 23.292 3.942 C 23.676 3.942 24.042 3.957 24.39 3.987 C 24.738 4.017 25.122 4.08 25.542 4.176 L 25.272 5.49 C 24.888 5.382 24.549 5.313 24.255 5.283 C 23.961 5.253 23.64 5.238 23.292 5.238 C 22.56 5.238 21.816 5.34 21.06 5.544 L 21.06 12.474 L 19.584 12.474 Z M 30.942 7.884 C 31.266 8.124 31.632 8.427 32.04 8.793 C 32.448 9.159 32.853 9.552 33.255 9.972 C 33.657 10.392 34.038 10.821 34.398 11.259 C 34.758 11.697 35.046 12.102 35.262 12.474 L 33.498 12.474 C 33.27 12.102 32.988 11.721 32.652 11.331 C 32.316 10.941 31.959 10.566 31.581 10.206 C 31.203 9.846 30.825 9.516 30.447 9.216 C 30.069 8.916 29.73 8.664 29.43 8.46 L 29.43 12.474 L 27.936 12.474 L 27.936 0.252 L 29.43 0 L 29.43 7.614 C 30.09 7.038 30.75 6.465 31.41 5.895 C 32.07 5.325 32.664 4.734 33.192 4.122 L 34.938 4.122 C 34.422 4.734 33.801 5.364 33.075 6.012 C 32.349 6.66 31.638 7.284 30.942 7.884 Z M 39.42 2.826 C 39.108 2.826 38.838 2.718 38.61 2.502 C 38.382 2.286 38.268 1.992 38.268 1.62 C 38.268 1.248 38.382 0.954 38.61 0.738 C 38.838 0.522 39.108 0.414 39.42 0.414 C 39.744 0.414 40.017 0.522 40.239 0.738 C 40.461 0.954 40.572 1.248 40.572 1.62 C 40.572 1.992 40.461 2.286 40.239 2.502 C 40.017 2.718 39.744 2.826 39.42 2.826 Z M 39.042 5.364 L 36.63 5.364 L 36.63 4.122 L 40.518 4.122 L 40.518 9.252 C 40.518 10.08 40.632 10.635 40.86 10.917 C 41.088 11.199 41.43 11.34 41.886 11.34 C 42.234 11.34 42.555 11.298 42.849 11.214 C 43.143 11.13 43.374 11.04 43.542 10.944 L 43.758 12.204 C 43.686 12.24 43.584 12.285 43.452 12.339 C 43.32 12.393 43.167 12.444 42.993 12.492 C 42.819 12.54 42.627 12.582 42.417 12.618 C 42.207 12.654 41.988 12.672 41.76 12.672 C 41.232 12.672 40.794 12.6 40.446 12.456 C 40.098 12.312 39.819 12.096 39.609 11.808 C 39.399 11.52 39.252 11.163 39.168 10.737 C 39.084 10.311 39.042 9.816 39.042 9.252 L 39.042 5.364 Z M 45.936 4.356 C 46.476 4.224 47.013 4.122 47.547 4.05 C 48.081 3.978 48.582 3.942 49.05 3.942 C 50.166 3.942 51.009 4.23 51.579 4.806 C 52.149 5.382 52.434 6.306 52.434 7.578 L 52.434 12.474 L 50.958 12.474 L 50.958 7.848 C 50.958 7.308 50.91 6.87 50.814 6.534 C 50.718 6.198 50.583 5.937 50.409 5.751 C 50.235 5.565 50.025 5.436 49.779 5.364 C 49.533 5.292 49.266 5.256 48.978 5.256 C 48.738 5.256 48.483 5.271 48.213 5.301 C 47.943 5.331 47.682 5.37 47.43 5.418 L 47.43 12.474 L 45.936 12.474 L 45.936 4.356 Z M 59.886 11.7 C 59.718 11.796 59.46 11.898 59.112 12.006 C 58.764 12.114 58.362 12.168 57.906 12.168 C 57.414 12.168 56.955 12.087 56.529 11.925 C 56.103 11.763 55.731 11.517 55.413 11.187 C 55.095 10.857 54.843 10.437 54.657 9.927 C 54.471 9.417 54.378 8.814 54.378 8.118 C 54.378 7.506 54.465 6.945 54.639 6.435 C 54.813 5.925 55.065 5.484 55.395 5.112 C 55.725 4.74 56.13 4.449 56.61 4.239 C 57.09 4.029 57.636 3.924 58.248 3.924 C 58.968 3.924 59.583 3.975 60.093 4.077 C 60.603 4.179 61.032 4.278 61.38 4.374 L 61.38 11.826 C 61.38 13.122 61.053 14.058 60.399 14.634 C 59.745 15.21 58.758 15.498 57.438 15.498 C 56.898 15.498 56.409 15.456 55.971 15.372 C 55.533 15.288 55.146 15.186 54.81 15.066 L 55.08 13.752 C 55.392 13.884 55.749 13.992 56.151 14.076 C 56.553 14.16 56.994 14.202 57.474 14.202 C 58.338 14.202 58.956 14.028 59.328 13.68 C 59.7 13.332 59.886 12.768 59.886 11.988 L 59.886 11.7 Z M 59.886 5.436 C 59.742 5.388 59.544 5.343 59.292 5.301 C 59.04 5.259 58.698 5.238 58.266 5.238 C 57.498 5.238 56.913 5.502 56.511 6.03 C 56.109 6.558 55.908 7.26 55.908 8.136 C 55.908 8.616 55.965 9.027 56.079 9.369 C 56.193 9.711 56.349 9.993 56.547 10.215 C 56.745 10.437 56.97 10.599 57.222 10.701 C 57.474 10.803 57.744 10.854 58.032 10.854 C 58.404 10.854 58.755 10.8 59.085 10.692 C 59.415 10.584 59.682 10.458 59.886 10.314 L 59.886 5.436 Z M 68.976 10.386 C 68.976 10.086 68.853 9.84 68.607 9.648 C 68.361 9.456 68.055 9.288 67.689 9.144 C 67.323 9 66.924 8.859 66.492 8.721 C 66.06 8.583 65.661 8.412 65.295 8.208 C 64.929 8.004 64.623 7.752 64.377 7.452 C 64.131 7.152 64.008 6.762 64.008 6.282 C 64.008 5.61 64.281 5.049 64.827 4.599 C 65.373 4.149 66.228 3.924 67.392 3.924 C 67.848 3.924 68.319 3.957 68.805 4.023 C 69.291 4.089 69.708 4.176 70.056 4.284 L 69.786 5.616 C 69.69 5.568 69.558 5.517 69.39 5.463 C 69.222 5.409 69.03 5.361 68.814 5.319 C 68.598 5.277 68.367 5.244 68.121 5.22 C 67.875 5.196 67.638 5.184 67.41 5.184 C 66.114 5.184 65.466 5.538 65.466 6.246 C 65.466 6.498 65.589 6.711 65.835 6.885 C 66.081 7.059 66.39 7.218 66.762 7.362 C 67.134 7.506 67.536 7.653 67.968 7.803 C 68.4 7.953 68.802 8.136 69.174 8.352 C 69.546 8.568 69.855 8.829 70.101 9.135 C 70.347 9.441 70.47 9.828 70.47 10.296 C 70.47 11.052 70.176 11.637 69.588 12.051 C 69 12.465 68.07 12.672 66.798 12.672 C 66.222 12.672 65.694 12.624 65.214 12.528 C 64.734 12.432 64.278 12.288 63.846 12.096 L 64.134 10.746 C 64.554 10.938 64.995 11.097 65.457 11.223 C 65.919 11.349 66.414 11.412 66.942 11.412 C 68.298 11.412 68.976 11.07 68.976 10.386 Z M 79.938 8.298 C 79.938 8.958 79.845 9.555 79.659 10.089 C 79.473 10.623 79.212 11.082 78.876 11.466 C 78.54 11.85 78.138 12.147 77.67 12.357 C 77.202 12.567 76.692 12.672 76.14 12.672 C 75.6 12.672 75.099 12.567 74.637 12.357 C 74.175 12.147 73.776 11.85 73.44 11.466 C 73.104 11.082 72.843 10.623 72.657 10.089 C 72.471 9.555 72.378 8.958 72.378 8.298 C 72.378 7.638 72.471 7.038 72.657 6.498 C 72.843 5.958 73.104 5.499 73.44 5.121 C 73.776 4.743 74.175 4.449 74.637 4.239 C 75.099 4.029 75.6 3.924 76.14 3.924 C 76.692 3.924 77.202 4.029 77.67 4.239 C 78.138 4.449 78.54 4.743 78.876 5.121 C 79.212 5.499 79.473 5.958 79.659 6.498 C 79.845 7.038 79.938 7.638 79.938 8.298 Z M 78.408 8.298 C 78.408 7.35 78.204 6.603 77.796 6.057 C 77.388 5.511 76.836 5.238 76.14 5.238 C 75.456 5.238 74.913 5.511 74.511 6.057 C 74.109 6.603 73.908 7.35 73.908 8.298 C 73.908 9.234 74.109 9.975 74.511 10.521 C 74.913 11.067 75.456 11.34 76.14 11.34 C 76.836 11.34 77.388 11.067 77.796 10.521 C 78.204 9.975 78.408 9.234 78.408 8.298 Z M 83.556 12.474 L 83.556 5.364 L 81.792 5.364 L 81.792 4.122 L 83.556 4.122 L 83.556 3.366 C 83.556 2.718 83.646 2.181 83.826 1.755 C 84.006 1.329 84.243 0.984 84.537 0.72 C 84.831 0.456 85.173 0.27 85.563 0.162 C 85.953 0.054 86.364 0 86.796 0 C 87.228 0 87.663 0.048 88.101 0.144 C 88.539 0.24 88.95 0.354 89.334 0.486 L 89.064 1.764 C 88.8 1.632 88.47 1.518 88.074 1.422 C 87.678 1.326 87.276 1.278 86.868 1.278 C 86.616 1.278 86.379 1.311 86.157 1.377 C 85.935 1.443 85.74 1.557 85.572 1.719 C 85.404 1.881 85.272 2.097 85.176 2.367 C 85.08 2.637 85.032 2.976 85.032 3.384 L 85.032 4.122 L 88.398 4.122 L 88.398 5.364 L 85.032 5.364 L 85.032 12.474 L 83.556 12.474 Z M 94.032 4.122 L 97.56 4.122 L 97.56 5.364 L 94.032 5.364 L 94.032 9.252 C 94.032 9.672 94.062 10.014 94.122 10.278 C 94.182 10.542 94.281 10.755 94.419 10.917 C 94.557 11.079 94.734 11.19 94.95 11.25 C 95.166 11.31 95.43 11.34 95.742 11.34 C 96.174 11.34 96.522 11.304 96.786 11.232 C 97.05 11.16 97.302 11.064 97.542 10.944 L 97.758 12.204 C 97.59 12.276 97.323 12.372 96.957 12.492 C 96.591 12.612 96.138 12.672 95.598 12.672 C 94.974 12.672 94.464 12.6 94.068 12.456 C 93.672 12.312 93.363 12.096 93.141 11.808 C 92.919 11.52 92.766 11.163 92.682 10.737 C 92.598 10.311 92.556 9.816 92.556 9.252 L 92.556 5.364 L 90.792 5.364 L 90.792 4.122 L 92.556 4.122 L 92.556 1.782 L 94.032 1.53 L 94.032 4.122 Z M 104.832 12.474 C 104.652 12.066 104.496 11.694 104.364 11.358 C 104.232 11.022 104.103 10.686 103.977 10.35 C 103.851 10.014 103.725 9.663 103.599 9.297 C 103.473 8.931 103.326 8.514 103.158 8.046 C 102.99 8.514 102.84 8.931 102.708 9.297 C 102.576 9.663 102.447 10.014 102.321 10.35 C 102.195 10.686 102.063 11.022 101.925 11.358 C 101.787 11.694 101.628 12.066 101.448 12.474 L 100.332 12.474 C 99.996 10.998 99.717 9.537 99.495 8.091 C 99.273 6.645 99.108 5.322 99 4.122 L 100.404 4.122 C 100.44 4.59 100.479 5.049 100.521 5.499 C 100.563 5.949 100.614 6.42 100.674 6.912 C 100.734 7.404 100.803 7.938 100.881 8.514 C 100.959 9.09 101.046 9.738 101.142 10.458 C 101.334 9.978 101.496 9.558 101.628 9.198 C 101.76 8.838 101.88 8.496 101.988 8.172 C 102.096 7.848 102.201 7.518 102.303 7.182 C 102.405 6.846 102.516 6.468 102.636 6.048 L 103.752 6.048 L 104.076 7.182 C 104.172 7.518 104.274 7.848 104.382 8.172 L 104.724 9.198 C 104.844 9.558 104.994 9.972 105.174 10.44 C 105.282 9.78 105.378 9.168 105.462 8.604 C 105.546 8.04 105.618 7.509 105.678 7.011 C 105.738 6.513 105.792 6.03 105.84 5.562 C 105.888 5.094 105.93 4.614 105.966 4.122 L 107.316 4.122 C 107.256 4.722 107.184 5.364 107.1 6.048 C 107.016 6.732 106.914 7.434 106.794 8.154 C 106.674 8.874 106.542 9.603 106.398 10.341 C 106.254 11.079 106.104 11.79 105.948 12.474 L 104.832 12.474 Z M 112.248 11.412 C 112.62 11.412 112.953 11.4 113.247 11.376 C 113.541 11.352 113.784 11.322 113.976 11.286 L 113.976 8.802 C 113.784 8.742 113.553 8.694 113.283 8.658 C 113.013 8.622 112.728 8.604 112.428 8.604 C 112.152 8.604 111.882 8.625 111.618 8.667 C 111.354 8.709 111.12 8.784 110.916 8.892 C 110.712 9 110.544 9.141 110.412 9.315 C 110.28 9.489 110.214 9.708 110.214 9.972 C 110.214 10.512 110.397 10.887 110.763 11.097 C 111.129 11.307 111.624 11.412 112.248 11.412 Z M 112.104 3.924 C 112.728 3.924 113.253 4.002 113.679 4.158 C 114.105 4.314 114.45 4.53 114.714 4.806 C 114.978 5.082 115.164 5.418 115.272 5.814 C 115.38 6.21 115.434 6.642 115.434 7.11 L 115.434 12.33 C 115.086 12.39 114.627 12.462 114.057 12.546 C 113.487 12.63 112.902 12.672 112.302 12.672 C 111.846 12.672 111.402 12.633 110.97 12.555 C 110.538 12.477 110.154 12.339 109.818 12.141 C 109.482 11.943 109.212 11.67 109.008 11.322 C 108.804 10.974 108.702 10.53 108.702 9.99 C 108.702 9.51 108.807 9.105 109.017 8.775 C 109.227 8.445 109.497 8.178 109.827 7.974 C 110.157 7.77 110.535 7.623 110.961 7.533 C 111.387 7.443 111.816 7.398 112.248 7.398 C 112.836 7.398 113.412 7.464 113.976 7.596 L 113.976 7.182 C 113.976 6.93 113.949 6.687 113.895 6.453 C 113.841 6.219 113.739 6.006 113.589 5.814 C 113.439 5.622 113.235 5.469 112.977 5.355 C 112.719 5.241 112.386 5.184 111.978 5.184 C 111.462 5.184 111.012 5.22 110.628 5.292 C 110.244 5.364 109.95 5.436 109.746 5.508 L 109.566 4.284 C 109.77 4.188 110.109 4.104 110.583 4.032 C 111.057 3.96 111.564 3.924 112.104 3.924 Z M 118.584 12.474 L 118.584 4.572 C 119.808 4.152 121.044 3.942 122.292 3.942 C 122.676 3.942 123.042 3.957 123.39 3.987 C 123.738 4.017 124.122 4.08 124.542 4.176 L 124.272 5.49 C 123.888 5.382 123.549 5.313 123.255 5.283 C 122.961 5.253 122.64 5.238 122.292 5.238 C 121.56 5.238 120.816 5.34 120.06 5.544 L 120.06 12.474 L 118.584 12.474 Z M 130.32 3.924 C 131.448 3.924 132.318 4.275 132.93 4.977 C 133.542 5.679 133.848 6.744 133.848 8.172 L 133.848 8.694 L 127.872 8.694 C 127.932 9.558 128.217 10.215 128.727 10.665 C 129.237 11.115 129.954 11.34 130.878 11.34 C 131.406 11.34 131.856 11.298 132.228 11.214 C 132.6 11.13 132.882 11.04 133.074 10.944 L 133.272 12.204 C 133.092 12.3 132.768 12.402 132.3 12.51 C 131.832 12.618 131.304 12.672 130.716 12.672 C 129.996 12.672 129.363 12.561 128.817 12.339 C 128.271 12.117 127.818 11.814 127.458 11.43 C 127.098 11.046 126.828 10.587 126.648 10.053 C 126.468 9.519 126.378 8.94 126.378 8.316 C 126.378 7.572 126.492 6.924 126.72 6.372 C 126.948 5.82 127.248 5.364 127.62 5.004 C 127.992 4.644 128.412 4.374 128.88 4.194 C 129.348 4.014 129.828 3.924 130.32 3.924 Z M 132.336 7.488 C 132.336 6.78 132.15 6.219 131.778 5.805 C 131.406 5.391 130.914 5.184 130.302 5.184 C 129.954 5.184 129.639 5.25 129.357 5.382 C 129.075 5.514 128.832 5.688 128.628 5.904 C 128.424 6.12 128.262 6.366 128.142 6.642 C 128.022 6.918 127.944 7.2 127.908 7.488 L 132.336 7.488 Z M 0.54 26.316 C 0.54 25.56 0.66 24.906 0.9 24.354 C 1.14 23.802 1.47 23.346 1.89 22.986 C 2.31 22.626 2.799 22.359 3.357 22.185 C 3.915 22.011 4.512 21.924 5.148 21.924 C 5.556 21.924 5.961 21.951 6.363 22.005 C 6.765 22.059 7.194 22.158 7.65 22.302 L 7.308 23.58 C 6.912 23.436 6.549 23.343 6.219 23.301 C 5.889 23.259 5.556 23.238 5.22 23.238 C 4.788 23.238 4.38 23.295 3.996 23.409 C 3.612 23.523 3.279 23.703 2.997 23.949 C 2.715 24.195 2.49 24.513 2.322 24.903 C 2.154 25.293 2.07 25.764 2.07 26.316 C 2.07 26.844 2.148 27.297 2.304 27.675 C 2.46 28.053 2.679 28.365 2.961 28.611 C 3.243 28.857 3.582 29.04 3.978 29.16 C 4.374 29.28 4.812 29.34 5.292 29.34 C 5.676 29.34 6.045 29.319 6.399 29.277 C 6.753 29.235 7.14 29.142 7.56 28.998 L 7.776 30.24 C 7.356 30.396 6.93 30.507 6.498 30.573 C 6.066 30.639 5.598 30.672 5.094 30.672 C 4.422 30.672 3.807 30.579 3.249 30.393 C 2.691 30.207 2.211 29.934 1.809 29.574 C 1.407 29.214 1.095 28.761 0.873 28.215 C 0.651 27.669 0.54 27.036 0.54 26.316 Z M 16.938 26.298 C 16.938 26.958 16.845 27.555 16.659 28.089 C 16.473 28.623 16.212 29.082 15.876 29.466 C 15.54 29.85 15.138 30.147 14.67 30.357 C 14.202 30.567 13.692 30.672 13.14 30.672 C 12.6 30.672 12.099 30.567 11.637 30.357 C 11.175 30.147 10.776 29.85 10.44 29.466 C 10.104 29.082 9.843 28.623 9.657 28.089 C 9.471 27.555 9.378 26.958 9.378 26.298 C 9.378 25.638 9.471 25.038 9.657 24.498 C 9.843 23.958 10.104 23.499 10.44 23.121 C 10.776 22.743 11.175 22.449 11.637 22.239 C 12.099 22.029 12.6 21.924 13.14 21.924 C 13.692 21.924 14.202 22.029 14.67 22.239 C 15.138 22.449 15.54 22.743 15.876 23.121 C 16.212 23.499 16.473 23.958 16.659 24.498 C 16.845 25.038 16.938 25.638 16.938 26.298 Z M 15.408 26.298 C 15.408 25.35 15.204 24.603 14.796 24.057 C 14.388 23.511 13.836 23.238 13.14 23.238 C 12.456 23.238 11.913 23.511 11.511 24.057 C 11.109 24.603 10.908 25.35 10.908 26.298 C 10.908 27.234 11.109 27.975 11.511 28.521 C 11.913 29.067 12.456 29.34 13.14 29.34 C 13.836 29.34 14.388 29.067 14.796 28.521 C 15.204 27.975 15.408 27.234 15.408 26.298 Z M 18.936 22.356 C 19.476 22.224 20.013 22.122 20.547 22.05 C 21.081 21.978 21.582 21.942 22.05 21.942 C 23.166 21.942 24.009 22.23 24.579 22.806 C 25.149 23.382 25.434 24.306 25.434 25.578 L 25.434 30.474 L 23.958 30.474 L 23.958 25.848 C 23.958 25.308 23.91 24.87 23.814 24.534 C 23.718 24.198 23.583 23.937 23.409 23.751 C 23.235 23.565 23.025 23.436 22.779 23.364 C 22.533 23.292 22.266 23.256 21.978 23.256 C 21.738 23.256 21.483 23.271 21.213 23.301 C 20.943 23.331 20.682 23.37 20.43 23.418 L 20.43 30.474 L 18.936 30.474 L 18.936 22.356 Z M 29.556 30.474 L 29.556 23.364 L 27.792 23.364 L 27.792 22.122 L 29.556 22.122 L 29.556 21.366 C 29.556 20.718 29.646 20.181 29.826 19.755 C 30.006 19.329 30.243 18.984 30.537 18.72 C 30.831 18.456 31.173 18.27 31.563 18.162 C 31.953 18.054 32.364 18 32.796 18 C 33.228 18 33.663 18.048 34.101 18.144 C 34.539 18.24 34.95 18.354 35.334 18.486 L 35.064 19.764 C 34.8 19.632 34.47 19.518 34.074 19.422 C 33.678 19.326 33.276 19.278 32.868 19.278 C 32.616 19.278 32.379 19.311 32.157 19.377 C 31.935 19.443 31.74 19.557 31.572 19.719 C 31.404 19.881 31.272 20.097 31.176 20.367 C 31.08 20.637 31.032 20.976 31.032 21.384 L 31.032 22.122 L 34.398 22.122 L 34.398 23.364 L 31.032 23.364 L 31.032 30.474 L 29.556 30.474 Z M 40.32 21.924 C 41.448 21.924 42.318 22.275 42.93 22.977 C 43.542 23.679 43.848 24.744 43.848 26.172 L 43.848 26.694 L 37.872 26.694 C 37.932 27.558 38.217 28.215 38.727 28.665 C 39.237 29.115 39.954 29.34 40.878 29.34 C 41.406 29.34 41.856 29.298 42.228 29.214 C 42.6 29.13 42.882 29.04 43.074 28.944 L 43.272 30.204 C 43.092 30.3 42.768 30.402 42.3 30.51 C 41.832 30.618 41.304 30.672 40.716 30.672 C 39.996 30.672 39.363 30.561 38.817 30.339 C 38.271 30.117 37.818 29.814 37.458 29.43 C 37.098 29.046 36.828 28.587 36.648 28.053 C 36.468 27.519 36.378 26.94 36.378 26.316 C 36.378 25.572 36.492 24.924 36.72 24.372 C 36.948 23.82 37.248 23.364 37.62 23.004 C 37.992 22.644 38.412 22.374 38.88 22.194 C 39.348 22.014 39.828 21.924 40.32 21.924 Z M 42.336 25.488 C 42.336 24.78 42.15 24.219 41.778 23.805 C 41.406 23.391 40.914 23.184 40.302 23.184 C 39.954 23.184 39.639 23.25 39.357 23.382 C 39.075 23.514 38.832 23.688 38.628 23.904 C 38.424 24.12 38.262 24.366 38.142 24.642 C 38.022 24.918 37.944 25.2 37.908 25.488 L 42.336 25.488 Z M 46.584 30.474 L 46.584 22.572 C 47.808 22.152 49.044 21.942 50.292 21.942 C 50.676 21.942 51.042 21.957 51.39 21.987 C 51.738 22.017 52.122 22.08 52.542 22.176 L 52.272 23.49 C 51.888 23.382 51.549 23.313 51.255 23.283 C 50.961 23.253 50.64 23.238 50.292 23.238 C 49.56 23.238 48.816 23.34 48.06 23.544 L 48.06 30.474 L 46.584 30.474 Z M 58.32 21.924 C 59.448 21.924 60.318 22.275 60.93 22.977 C 61.542 23.679 61.848 24.744 61.848 26.172 L 61.848 26.694 L 55.872 26.694 C 55.932 27.558 56.217 28.215 56.727 28.665 C 57.237 29.115 57.954 29.34 58.878 29.34 C 59.406 29.34 59.856 29.298 60.228 29.214 C 60.6 29.13 60.882 29.04 61.074 28.944 L 61.272 30.204 C 61.092 30.3 60.768 30.402 60.3 30.51 C 59.832 30.618 59.304 30.672 58.716 30.672 C 57.996 30.672 57.363 30.561 56.817 30.339 C 56.271 30.117 55.818 29.814 55.458 29.43 C 55.098 29.046 54.828 28.587 54.648 28.053 C 54.468 27.519 54.378 26.94 54.378 26.316 C 54.378 25.572 54.492 24.924 54.72 24.372 C 54.948 23.82 55.248 23.364 55.62 23.004 C 55.992 22.644 56.412 22.374 56.88 22.194 C 57.348 22.014 57.828 21.924 58.32 21.924 Z M 60.336 25.488 C 60.336 24.78 60.15 24.219 59.778 23.805 C 59.406 23.391 58.914 23.184 58.302 23.184 C 57.954 23.184 57.639 23.25 57.357 23.382 C 57.075 23.514 56.832 23.688 56.628 23.904 C 56.424 24.12 56.262 24.366 56.142 24.642 C 56.022 24.918 55.944 25.2 55.908 25.488 L 60.336 25.488 Z M 63.936 22.356 C 64.476 22.224 65.013 22.122 65.547 22.05 C 66.081 21.978 66.582 21.942 67.05 21.942 C 68.166 21.942 69.009 22.23 69.579 22.806 C 70.149 23.382 70.434 24.306 70.434 25.578 L 70.434 30.474 L 68.958 30.474 L 68.958 25.848 C 68.958 25.308 68.91 24.87 68.814 24.534 C 68.718 24.198 68.583 23.937 68.409 23.751 C 68.235 23.565 68.025 23.436 67.779 23.364 C 67.533 23.292 67.266 23.256 66.978 23.256 C 66.738 23.256 66.483 23.271 66.213 23.301 C 65.943 23.331 65.682 23.37 65.43 23.418 L 65.43 30.474 L 63.936 30.474 L 63.936 22.356 Z M 72.54 26.316 C 72.54 25.56 72.66 24.906 72.9 24.354 C 73.14 23.802 73.47 23.346 73.89 22.986 C 74.31 22.626 74.799 22.359 75.357 22.185 C 75.915 22.011 76.512 21.924 77.148 21.924 C 77.556 21.924 77.961 21.951 78.363 22.005 C 78.765 22.059 79.194 22.158 79.65 22.302 L 79.308 23.58 C 78.912 23.436 78.549 23.343 78.219 23.301 C 77.889 23.259 77.556 23.238 77.22 23.238 C 76.788 23.238 76.38 23.295 75.996 23.409 C 75.612 23.523 75.279 23.703 74.997 23.949 C 74.715 24.195 74.49 24.513 74.322 24.903 C 74.154 25.293 74.07 25.764 74.07 26.316 C 74.07 26.844 74.148 27.297 74.304 27.675 C 74.46 28.053 74.679 28.365 74.961 28.611 C 75.243 28.857 75.582 29.04 75.978 29.16 C 76.374 29.28 76.812 29.34 77.292 29.34 C 77.676 29.34 78.045 29.319 78.399 29.277 C 78.753 29.235 79.14 29.142 79.56 28.998 L 79.776 30.24 C 79.356 30.396 78.93 30.507 78.498 30.573 C 78.066 30.639 77.598 30.672 77.094 30.672 C 76.422 30.672 75.807 30.579 75.249 30.393 C 74.691 30.207 74.211 29.934 73.809 29.574 C 73.407 29.214 73.095 28.761 72.873 28.215 C 72.651 27.669 72.54 27.036 72.54 26.316 Z M 85.32 21.924 C 86.448 21.924 87.318 22.275 87.93 22.977 C 88.542 23.679 88.848 24.744 88.848 26.172 L 88.848 26.694 L 82.872 26.694 C 82.932 27.558 83.217 28.215 83.727 28.665 C 84.237 29.115 84.954 29.34 85.878 29.34 C 86.406 29.34 86.856 29.298 87.228 29.214 C 87.6 29.13 87.882 29.04 88.074 28.944 L 88.272 30.204 C 88.092 30.3 87.768 30.402 87.3 30.51 C 86.832 30.618 86.304 30.672 85.716 30.672 C 84.996 30.672 84.363 30.561 83.817 30.339 C 83.271 30.117 82.818 29.814 82.458 29.43 C 82.098 29.046 81.828 28.587 81.648 28.053 C 81.468 27.519 81.378 26.94 81.378 26.316 C 81.378 25.572 81.492 24.924 81.72 24.372 C 81.948 23.82 82.248 23.364 82.62 23.004 C 82.992 22.644 83.412 22.374 83.88 22.194 C 84.348 22.014 84.828 21.924 85.32 21.924 Z M 87.336 25.488 C 87.336 24.78 87.15 24.219 86.778 23.805 C 86.406 23.391 85.914 23.184 85.302 23.184 C 84.954 23.184 84.639 23.25 84.357 23.382 C 84.075 23.514 83.832 23.688 83.628 23.904 C 83.424 24.12 83.262 24.366 83.142 24.642 C 83.022 24.918 82.944 25.2 82.908 25.488 L 87.336 25.488 Z Z Z Z Z Z Z Z" transform="translate(0 51)"/>
    <path fill="#4DF75B" d="M0.70901267,38.0105679 C0.924905866,37.7401511 1.39716515,37.2128464 2.12580468,36.4286379 C2.85444422,35.6444294 3.73149717,34.7250264 4.75698985,33.6704012 C5.78248253,32.6157759 6.91590481,31.4935634 8.15729069,30.3037298 C9.39867657,29.1138962 10.6940163,27.9511218 12.0433488,26.8153715 C13.878441,25.2469545 15.4706294,23.8543293 16.8199619,22.637454 C18.1692943,21.4205788 19.3836753,20.3524488 20.4631413,19.4330319 C20.5710879,19.3248652 20.4766361,19.0814938 20.1797829,18.7029104 C19.8829298,18.324327 19.5186155,17.8916667 19.0868291,17.4049166 C18.6550427,16.9181665 18.1692903,16.4179031 17.6295573,15.9041113 C17.0898243,15.3903196 16.6310581,14.9441387 16.2532451,14.5655552 C15.0118592,13.3216383 13.7300126,12.0642194 12.4076667,10.7932608 C11.0853209,9.52230223 9.85744677,8.35952776 8.72400749,7.30490255 C7.59056822,6.25027733 6.60557028,5.33087426 5.76898415,4.54666577 C4.93239802,3.76245727 4.37918,3.23515257 4.1093135,2.96473585 C3.62355381,2.47798575 3.63704694,1.99124295 4.14979328,1.50449285 C4.66253962,1.01774275 5.36418198,0.639165016 6.25474141,0.368748293 C7.14530085,0.0983315709 8.07632629,-0.023354129 9.04784567,0.00368754327 C10.0193651,0.0307292155 10.7749799,0.314662515 11.3147129,0.85549596 C11.692526,1.23407937 12.3401959,1.84250787 13.2577419,2.68079971 C14.175288,3.51909155 15.1467928,4.42497398 16.1722855,5.39847418 C17.1977782,6.37197438 18.1827761,7.29137745 19.1273089,8.15671096 C20.0718416,9.02204447 20.7869771,9.69807614 21.2727368,10.1848262 C22.1363095,11.0501598 23.2697318,12.1047692 24.6730376,13.3486861 C26.0763434,14.592603 27.3446969,15.8770632 28.4781362,17.2021051 C29.6115754,18.527147 30.3806834,19.8251278 30.7854831,21.0960864 C31.1902829,22.367045 30.8259686,23.4892576 29.6925293,24.4627578 C28.8289565,25.1658413 27.8439586,26.0311618 26.737506,27.0587454 C25.6310533,28.0863289 24.376193,29.3031859 22.9728872,30.7093529 C22.4871275,31.1420196 21.879937,31.7369275 21.1512974,32.4940943 C20.4226579,33.2512611 19.6805362,34.0219372 18.92491,34.8061457 C18.1692838,35.5903542 17.4271621,36.3475097 16.6985225,37.0776348 L15.0388519,38.7406894 C13.6895194,40.4713564 12.0028791,41.6070896 9.97888042,42.147923 C7.95488171,42.6887565 6.10632395,42.8239628 4.43315168,42.5535461 C2.75997941,42.2831294 1.49162591,41.7287834 0.628053127,40.8904916 C-0.235519657,40.0521997 -0.208533412,39.0922347 0.70901267,38.0105679 Z"/>
    <path id="cursor" fill="#4DF75B" d="M57.0764788,5.67872278 C55.2413866,5.9491395 52.9205696,6.1925109 50.1139581,6.40884428 C47.3073465,6.62517766 44.2309146,6.81446652 40.8845701,6.97671656 C37.5382255,7.13896659 34.057,7.27417292 30.4407889,7.38233961 C26.8245779,7.4905063 23.3433523,7.55810947 19.9970078,7.58515114 C16.6506633,7.61219281 13.533752,7.59867218 10.6461805,7.54458884 C7.75860902,7.49050549 5.39731261,7.38234042 3.56222044,7.22009039 C2.15891467,7.22009039 1.18740986,6.84151266 0.647676868,6.08434584 C0.107943878,5.32717901 -0.0944529575,4.50242038 0.04048029,3.6100452 C0.175413537,2.71767001 0.64767282,1.89291138 1.4572723,1.13574456 C2.26687179,0.378577733 3.37330782,0 4.77661359,0 C6.88157226,0.162250034 9.35081364,0.283935733 12.1844118,0.36506075 C15.01801,0.446185767 18.0134832,0.513788933 21.1709212,0.567872278 C24.3283592,0.621955622 27.5667085,0.662517522 30.8860664,0.689559195 C34.2054243,0.716600867 37.4302806,0.716600867 40.5607319,0.689559195 C43.6911832,0.662517522 46.646177,0.621955622 49.4258019,0.567872278 C52.2054268,0.513788933 54.647682,0.432665134 56.7526406,0.324498445 C57.7781333,0.2704151 58.5877207,0.486745233 59.1814269,0.973495334 C59.7751332,1.46024543 60.1124613,2.02811203 60.1934212,2.67711217 C60.2743812,3.3261123 60.0719844,3.94806143 59.5862247,4.54297822 C59.100465,5.13789501 58.2638914,5.51647275 57.0764788,5.67872278 Z" transform="translate(28 35)">
  	</path>
  </g>
</svg>
